# xmcd
#
# Track frame offsets:
#	150
#	13355
#	23725
#	37685
#	53622
#	70770
#	81740
#	97115
#	112235
#	124082
#	136142
#	150865
#
# Disc length: 2170 seconds
#
# Revision: 3
# Processed by: cddbd v1.5.2PL0 Copyright (c) Steve Scherf et al.
# Submitted via: audiograbber 1.83.01
#
DISCID=9808780c
DTITLE=Various Artist - Country's Best
DYEAR=2002
DGENRE=Country
TTITLE0=Charlie Rich - Behind Closed Doors
TTITLE1=Kris Kristofferson - Help Me Make It Through The Night
TTITLE2=Mac Davis - Baby Don't Get Hooked On Me
TTITLE3=Willie Nelson - Always On My Mind
TTITLE4=Ray Price - For The Good Times
TTITLE5=Vern Gosdin - Set'em Up Joe
TTITLE6=TG Sheppard - You're My First Lady
TTITLE7=Ricky Van Shelton - Somebody Lied
TTITLE8=Mickey Gilley - That's All That Matters To Me
TTITLE9=Tammy Wynette - Stand By Your Man
TTITLE10=George Jones - He Stopped Loving Her Today
TTITLE11=Johnny Cash - Ring Of Fire
EXTD=
EXTT0=
EXTT1=
EXTT2=
EXTT3=
EXTT4=
EXTT5=
EXTT6=
EXTT7=
EXTT8=
EXTT9=
EXTT10=
EXTT11=
PLAYORDER=
